<svg id="bold" enable-background="new 0 0 24 24" height="512" viewBox="0 0 24 24" width="512" xmlns="http://www.w3.org/2000/svg"><g><path d="m18 12c-1.106 0-2.152.308-3.074.865l-.646-.645c-.214-.215-.537-.278-.817-.163-.28.116-.463.39-.463.693v2.5c0 .414.336.75.75.75h2.5c.304 0 .577-.183.693-.463.115-.28.052-.603-.163-.817l-.378-.378c.498-.217 1.035-.342 1.598-.342 2.206 0 4 1.794 4 4s-1.794 4-4 4c-1.901 0-3.546-1.343-3.908-3.192-.106-.542-.634-.896-1.174-.789-.542.106-.896.632-.789 1.174.547 2.785 3.016 4.807 5.871 4.807 3.309 0 6-2.691 6-6s-2.691-6-6-6z"/><path d="m0 9v6h11v-2.25c0-1.12.67-2.11 1.7-2.54.87-.36 1.84-.24 2.59.27.86-.31 1.77-.48 2.71-.48v-1z"/><path d="m10.17 19.58c-.19-.96.11-1.9.72-2.58h-10.89v4.25c0 1.52 1.23 2.75 2.75 2.75h9.98c-1.29-1.12-2.21-2.65-2.56-4.42z"/><path d="m15.25 0h-12.5c-1.52 0-2.75 1.23-2.75 2.75v4.25h18v-4.25c0-1.52-1.23-2.75-2.75-2.75zm-11.75 5c-.83 0-1.5-.67-1.5-1.5s.67-1.5 1.5-1.5 1.5.67 1.5 1.5-.67 1.5-1.5 1.5zm5 0c-.83 0-1.5-.67-1.5-1.5s.67-1.5 1.5-1.5 1.5.67 1.5 1.5-.67 1.5-1.5 1.5zm5 0c-.83 0-1.5-.67-1.5-1.5s.67-1.5 1.5-1.5 1.5.67 1.5 1.5-.67 1.5-1.5 1.5z"/></g></svg>