<svg id="color" enable-background="new 0 0 24 24" height="512" viewBox="0 0 24 24" width="512" xmlns="http://www.w3.org/2000/svg"><path d="m15.25 0h-12.5c-1.52 0-2.75 1.23-2.75 2.75v5.25h18v-5.25c0-1.52-1.23-2.75-2.75-2.75z" fill="#2196f3"/><path d="m0 8v8h11.12c-.08-.24-.12-.49-.12-.75v-2.5c0-1.12.67-2.11 1.7-2.54.87-.36 1.84-.24 2.59.271.86-.311 1.77-.481 2.71-.481v-2z" fill="#64b5f6"/><path d="m11.36 16.58c-.1-.18-.18-.38-.24-.58h-11.12v5.25c0 1.52 1.23 2.75 2.75 2.75h9.98c-1.29-1.12-2.211-2.65-2.561-4.42-.239-1.18.271-2.34 1.191-3z" fill="#2196f3"/><path d="m9.083 0h-6.333c-1.52 0-2.75 1.23-2.75 2.75v5.25h9.083z" fill="#1d83d4"/><path d="m9.083 8h-9.083v8h9.083z" fill="#579ed6"/><path d="m9.083 16h-9.083v5.25c0 1.52 1.23 2.75 2.75 2.75h6.333z" fill="#1d83d4"/><circle cx="12.5" cy="4.5" fill="#fff" r="1.5"/><circle cx="5.5" cy="4.5" fill="#fff" r="1.5"/><path d="m5.5 3c-.829 0-1.5.672-1.5 1.5s.671 1.5 1.5 1.5z" fill="#dedede"/><path d="m12.5 3c-.829 0-1.5.672-1.5 1.5s.671 1.5 1.5 1.5z" fill="#dedede"/><path d="m18 12c-1.106 0-2.152.308-3.074.865l-.646-.645c-.214-.215-.537-.278-.817-.163-.28.116-.463.39-.463.693v2.5c0 .414.336.75.75.75h2.5c.304 0 .577-.183.693-.463.115-.28.052-.603-.163-.817l-.378-.378c.498-.217 1.035-.342 1.598-.342 2.206 0 4 1.794 4 4s-1.794 4-4 4c-1.901 0-3.546-1.343-3.908-3.192-.106-.542-.634-.896-1.174-.789-.542.106-.896.632-.789 1.174.547 2.785 3.016 4.807 5.871 4.807 3.309 0 6-2.691 6-6s-2.691-6-6-6z" fill="#4caf50"/><path d="m13.112 17.999c-.064 0-.129.006-.194.019-.542.106-.896.632-.789 1.174.547 2.786 3.016 4.808 5.871 4.808v-2c-1.901 0-3.546-1.343-3.908-3.192-.094-.477-.513-.809-.98-.809zm4.888-5.999c-1.105 0-2.151.308-3.074.865l-.646-.645c-.143-.144-.335-.22-.53-.22-.097 0-.194.019-.287.057-.28.116-.463.39-.463.693v2.5c0 .414.336.75.75.75h2.5c.304 0 .577-.183.693-.463.115-.28.052-.603-.163-.817l-.378-.377c.497-.218 1.035-.343 1.598-.343z" fill="#429846"/></svg>